<svg width="757" height="756" xmlns="http://www.w3.org/2000/svg" xmlns:xlink="http://www.w3.org/1999/xlink" xml:space="preserve" overflow="hidden"><g transform="translate(-261 18)"><g><g><g><g><path d="M372.25 612C359.65 612 348.625 607.275 339.175 597.825 329.725 588.375 325 577.35 325 564.75L325 155.25C325 142.65 329.725 131.625 339.175 122.175 348.625 112.725 359.65 108 372.25 108L907.75 108C920.35 108 931.375 112.725 940.825 122.175 950.275 131.625 955 142.65 955 155.25L955 564.75C955 577.35 950.275 588.375 940.825 597.825 931.375 607.275 920.35 612 907.75 612L372.25 612ZM663.625 564.75 907.75 564.75 907.75 155.25 663.625 155.25 663.625 564.75ZM411.625 488.362 577 488.362 577 441.112 411.625 441.112 411.625 488.362ZM411.625 386.775 577 386.775 577 339.525 411.625 339.525 411.625 386.775ZM411.625 285.188 577 285.188 577 237.937 411.625 237.937 411.625 285.188ZM703 488.362 868.375 488.362 868.375 441.112 703 441.112 703 488.362ZM703 386.775 868.375 386.775 868.375 339.525 703 339.525 703 386.775ZM703 285.188 868.375 285.188 868.375 237.937 703 237.937 703 285.188Z" fill="#000000" fill-rule="nonzero" fill-opacity="1"/></g></g></g></g></g></svg>