<svg width="248" height="248" xmlns="http://www.w3.org/2000/svg" xmlns:xlink="http://www.w3.org/1999/xlink" xml:space="preserve" overflow="hidden"><g transform="translate(-516 -236)"><g><path d="M640 256.667C588.638 256.667 547 298.304 547 349.667L547 463.333 578 432.333 609 463.333 640 432.333 671 463.333 702 432.333 733 463.333 733 349.667C733 298.304 691.363 256.667 640 256.667M609 318.667C620.414 318.667 629.667 327.919 629.667 339.333 629.667 350.748 620.414 360 609 360 597.586 360 588.333 350.748 588.333 339.333 588.333 327.919 597.586 318.667 609 318.667M671 318.667C682.414 318.667 691.667 327.919 691.667 339.333 691.667 350.748 682.414 360 671 360 659.586 360 650.333 350.748 650.333 339.333 650.333 327.919 659.586 318.667 671 318.667Z" fill="#FFBA00" fill-rule="nonzero" fill-opacity="1"/></g></g></svg>